<svg width="372" height="372" viewBox="0 0 372 372" fill="none" xmlns="http://www.w3.org/2000/svg">
<path d="M372 186C372 288.725 288.725 372 186 372C83.275 372 0 288.725 0 186C0 83.275 83.275 0 186 0C288.725 0 372 83.275 372 186Z" fill="#FFEFEF"/>
<path d="M329.729 184.339C329.729 204.418 313.451 220.695 293.373 220.695C273.294 220.695 257.017 204.418 257.017 184.339C257.017 164.261 273.294 147.983 293.373 147.983C313.451 147.983 329.729 164.261 329.729 184.339Z" fill="#FFAEA6"/>
<path d="M318.821 184.339C318.821 198.395 307.427 209.789 293.372 209.789C279.317 209.789 267.923 198.395 267.923 184.339C267.923 170.284 279.317 158.89 293.372 158.89C307.427 158.89 318.821 170.284 318.821 184.339Z" fill="#FFEFEF"/>
<path d="M177.033 104.356C177.033 124.435 160.756 140.712 140.677 140.712C120.598 140.712 104.321 124.435 104.321 104.356C104.321 84.2771 120.598 68 140.677 68C160.756 68 177.033 84.2771 177.033 104.356Z" fill="#FFAEA6"/>
<path d="M166.127 104.356C166.127 118.411 154.733 129.805 140.678 129.805C126.623 129.805 115.229 118.411 115.229 104.356C115.229 90.3007 126.623 78.9067 140.678 78.9067C154.733 78.9067 166.127 90.3007 166.127 104.356Z" fill="#FFEFEF"/>
<path d="M109.712 249.974C109.712 270.053 93.4349 286.33 73.356 286.33C53.2771 286.33 37 270.053 37 249.974C37 229.895 53.2771 213.618 73.356 213.618C93.4349 213.618 109.712 229.895 109.712 249.974Z" fill="#FFAEA6"/>
<path d="M98.8056 249.974C98.8056 264.029 87.4116 275.423 73.3564 275.423C59.3012 275.423 47.9072 264.029 47.9072 249.974C47.9072 235.919 59.3012 224.525 73.3564 224.525C87.4116 224.525 98.8056 235.919 98.8056 249.974Z" fill="#FFEFEF"/>
<path d="M282.465 120.716C282.465 131.759 273.513 140.712 262.469 140.712C251.426 140.712 242.474 131.759 242.474 120.716C242.474 109.673 251.426 100.72 262.469 100.72C273.513 100.72 282.465 109.673 282.465 120.716Z" fill="#FFAEA6"/>
<path d="M275.194 120.716C275.194 127.744 269.497 133.441 262.47 133.441C255.442 133.441 249.745 127.744 249.745 120.716C249.745 113.689 255.442 107.992 262.47 107.992C269.497 107.992 275.194 113.689 275.194 120.716Z" fill="#FFEFEF"/>
<path d="M111.592 162.526C111.592 172.565 103.454 180.704 93.4143 180.704C83.3749 180.704 75.2363 172.565 75.2363 162.526C75.2363 152.486 83.3749 144.348 93.4143 144.348C103.454 144.348 111.592 152.486 111.592 162.526Z" fill="#FFAEA6"/>
<path d="M104.321 162.525C104.321 168.549 99.4383 173.432 93.4146 173.432C87.391 173.432 82.5078 168.549 82.5078 162.525C82.5078 156.502 87.391 151.619 93.4146 151.619C99.4383 151.619 104.321 156.502 104.321 162.525Z" fill="#FFEFEF"/>
<path d="M231.567 273.411C231.567 284.455 222.614 293.407 211.571 293.407C200.528 293.407 191.575 284.455 191.575 273.411C191.575 262.368 200.528 253.416 211.571 253.416C222.614 253.416 231.567 262.368 231.567 273.411Z" fill="#FFAEA6"/>
<path d="M224.296 273.412C224.296 280.439 218.599 286.136 211.571 286.136C204.544 286.136 198.847 280.439 198.847 273.412C198.847 266.384 204.544 260.687 211.571 260.687C218.599 260.687 224.296 266.384 224.296 273.412Z" fill="#FFEFEF"/>
<path d="M213.389 186.157C213.389 201.216 201.182 213.424 186.122 213.424C171.063 213.424 158.855 201.216 158.855 186.157C158.855 171.098 171.063 158.89 186.122 158.89C201.182 158.89 213.389 171.098 213.389 186.157Z" fill="#FFAEA6"/>
<rect x="253.68" y="133.724" width="60.4467" height="6.61759" transform="rotate(139.63 253.68 133.724)" fill="#FFAEA6"/>
<rect x="209.753" y="180.704" width="57.7185" height="10.5391" fill="#FFAEA6"/>
<rect x="157.737" y="126.206" width="44.4597" height="10.5391" transform="rotate(59 157.737 126.206)" fill="#FFAEA6"/>
<path d="M106.854 163.92L162.858 177.883L161.257 184.303L105.253 170.34L106.854 163.92Z" fill="#FFAEA6"/>
<rect x="100.455" y="229.401" width="70.4513" height="10.5391" transform="rotate(-29 100.455 229.401)" fill="#FFAEA6"/>
<rect x="203.67" y="256.638" width="46.7294" height="6.61679" transform="rotate(-105 203.67 256.638)" fill="#FFAEA6"/>
<path d="M202.482 185.957C202.482 194.993 195.157 202.318 186.122 202.318C177.086 202.318 169.762 194.993 169.762 185.957C169.762 176.922 177.086 169.597 186.122 169.597C195.157 169.597 202.482 176.922 202.482 185.957Z" fill="#FFEFEF"/>
</svg>
