<svg width="55" height="71" viewBox="0 0 55 71" fill="none" xmlns="http://www.w3.org/2000/svg">
<mask id="mask0_278_114" style="mask-type:alpha" maskUnits="userSpaceOnUse" x="0" y="0" width="55" height="71">
<rect width="55" height="71" fill="white"/>
</mask>
<g mask="url(#mask0_278_114)">
<g filter="url(#filter0_d_278_114)">
<circle cx="50.5" cy="35.5" r="32.5" fill="#FFB6A6"/>
<rect x="29.1631" y="35.2231" width="1.46683" height="7.33414" rx="0.733414" transform="rotate(-135 29.1631 35.2231)" fill="white"/>
<rect x="34.3486" y="38.5869" width="1.46683" height="7.33414" rx="0.733414" transform="rotate(135 34.3486 38.5869)" fill="white"/>
<path d="M40.944 16.3522C40.944 15.9416 41.0107 15.5736 41.144 15.2482C41.2773 14.9229 41.4747 14.6616 41.736 14.4642C41.9973 14.2722 42.312 14.1709 42.68 14.1602V15.6162C42.472 15.6376 42.312 15.7096 42.2 15.8322C42.0933 15.9549 42.04 16.1149 42.04 16.3122C42.04 16.5149 42.0853 16.6749 42.176 16.7922C42.272 16.9096 42.4027 16.9682 42.568 16.9682C42.7067 16.9682 42.8213 16.9202 42.912 16.8242C43.0027 16.7336 43.0773 16.6189 43.136 16.4802C43.1947 16.3469 43.2613 16.1549 43.336 15.9042C43.448 15.5416 43.56 15.2456 43.672 15.0162C43.784 14.7869 43.9493 14.5896 44.168 14.4242C44.3867 14.2589 44.672 14.1762 45.024 14.1762C45.5467 14.1762 45.9547 14.3656 46.248 14.7442C46.5467 15.1229 46.696 15.6162 46.696 16.2242C46.696 16.8429 46.5467 17.3416 46.248 17.7202C45.9547 18.0989 45.544 18.3016 45.016 18.3282V16.8482C45.1973 16.8376 45.3387 16.7709 45.44 16.6482C45.5467 16.5256 45.6 16.3682 45.6 16.1762C45.6 16.0109 45.5547 15.8776 45.464 15.7762C45.3787 15.6749 45.2533 15.6242 45.088 15.6242C44.9067 15.6242 44.7653 15.7096 44.664 15.8802C44.5627 16.0509 44.4533 16.3176 44.336 16.6802C44.2133 17.0429 44.096 17.3362 43.984 17.5602C43.872 17.7896 43.7093 17.9869 43.496 18.1522C43.2827 18.3176 43.008 18.4002 42.672 18.4002C42.352 18.4002 42.0613 18.3176 41.8 18.1522C41.5387 17.9922 41.3307 17.7576 41.176 17.4482C41.0213 17.1389 40.944 16.7736 40.944 16.3522ZM40.936 21.2741C40.936 20.8368 41.0293 20.4421 41.216 20.0901C41.4027 19.7434 41.6693 19.4688 42.016 19.2661C42.3627 19.0688 42.768 18.9701 43.232 18.9701C43.6907 18.9701 44.0933 19.0714 44.44 19.2741C44.792 19.4768 45.0613 19.7541 45.248 20.1061C45.4347 20.4581 45.528 20.8528 45.528 21.2901C45.528 21.7274 45.4347 22.1221 45.248 22.4741C45.0613 22.8261 44.792 23.1034 44.44 23.3061C44.0933 23.5088 43.6907 23.6101 43.232 23.6101C42.7733 23.6101 42.368 23.5061 42.016 23.2981C41.6693 23.0954 41.4027 22.8154 41.216 22.4581C41.0293 22.1061 40.936 21.7114 40.936 21.2741ZM42.12 21.2741C42.12 21.5354 42.216 21.7568 42.408 21.9381C42.6 22.1248 42.8747 22.2181 43.232 22.2181C43.5893 22.2181 43.864 22.1274 44.056 21.9461C44.248 21.7701 44.344 21.5514 44.344 21.2901C44.344 21.0234 44.248 20.8021 44.056 20.6261C43.8693 20.4501 43.5947 20.3621 43.232 20.3621C42.8747 20.3621 42.6 20.4474 42.408 20.6181C42.216 20.7941 42.12 21.0128 42.12 21.2741ZM45.464 28.7438H41V27.3758H41.608C41.4107 27.2372 41.2507 27.0478 41.128 26.8078C41.0107 26.5732 40.952 26.3118 40.952 26.0238C40.952 25.6825 41.0267 25.3812 41.176 25.1198C41.3307 24.8585 41.552 24.6558 41.84 24.5118C42.128 24.3678 42.4667 24.2958 42.856 24.2958H45.464V25.6558H43.04C42.7413 25.6558 42.5093 25.7332 42.344 25.8878C42.1787 26.0425 42.096 26.2505 42.096 26.5118C42.096 26.7785 42.1787 26.9892 42.344 27.1438C42.5093 27.2985 42.7413 27.3758 43.04 27.3758H45.464V28.7438ZM44.72 31.0945C44.9653 31.2545 45.1573 31.4545 45.296 31.6945C45.44 31.9345 45.512 32.2011 45.512 32.4945H44.064V32.1185C44.064 31.7771 43.9893 31.5211 43.84 31.3505C43.696 31.1798 43.44 31.0945 43.072 31.0945H41V29.7265H45.464V31.0945H44.72ZM43.232 32.8763C43.696 32.8763 44.1013 32.9697 44.448 33.1563C44.7947 33.3483 45.0613 33.6123 45.248 33.9483C45.4347 34.2897 45.528 34.679 45.528 35.1163C45.528 35.6763 45.3813 36.143 45.088 36.5163C44.7947 36.895 44.3813 37.143 43.848 37.2603V35.8043C44.1893 35.6817 44.36 35.4443 44.36 35.0923C44.36 34.8417 44.2613 34.6417 44.064 34.4923C43.872 34.343 43.5947 34.2683 43.232 34.2683C42.8693 34.2683 42.5893 34.343 42.392 34.4923C42.2 34.6417 42.104 34.8417 42.104 35.0923C42.104 35.4443 42.2747 35.6817 42.616 35.8043V37.2603C42.0933 37.143 41.6827 36.895 41.384 36.5163C41.0853 36.1377 40.936 35.671 40.936 35.1163C40.936 34.679 41.0293 34.2897 41.216 33.9483C41.4027 33.6123 41.6693 33.3483 42.016 33.1563C42.3627 32.9697 42.768 32.8763 43.232 32.8763ZM43.304 42.2001C43.176 42.2001 43.0427 42.1921 42.904 42.1761V39.0801C42.6267 39.1014 42.4133 39.1894 42.264 39.3441C42.12 39.5041 42.048 39.6988 42.048 39.9281C42.048 40.2694 42.192 40.5068 42.48 40.6401V42.0961C42.1867 42.0214 41.9227 41.8854 41.688 41.6881C41.4533 41.4961 41.2693 41.2534 41.136 40.9601C41.0027 40.6668 40.936 40.3388 40.936 39.9761C40.936 39.5388 41.0293 39.1494 41.216 38.8081C41.4027 38.4668 41.6693 38.2001 42.016 38.0081C42.3627 37.8161 42.768 37.7201 43.232 37.7201C43.696 37.7201 44.1013 37.8134 44.448 38.0001C44.7947 38.1921 45.0613 38.4588 45.248 38.8001C45.4347 39.1414 45.528 39.5334 45.528 39.9761C45.528 40.4081 45.4373 40.7921 45.256 41.1281C45.0747 41.4641 44.816 41.7254 44.48 41.9121C44.144 42.1041 43.752 42.2001 43.304 42.2001ZM43.664 40.8001C43.8987 40.8001 44.0853 40.7201 44.224 40.5601C44.3627 40.4001 44.432 40.2001 44.432 39.9601C44.432 39.7308 44.3653 39.5361 44.232 39.3761C44.0987 39.2214 43.9093 39.1254 43.664 39.0881V40.8001ZM46.616 45.0258C46.616 45.6178 46.4987 46.1351 46.264 46.5778C46.0293 47.0204 45.6987 47.3618 45.272 47.6018C44.8507 47.8471 44.3627 47.9698 43.808 47.9698C43.2587 47.9698 42.7707 47.8471 42.344 47.6018C41.9173 47.3618 41.5867 47.0178 41.352 46.5698C41.1173 46.1271 41 45.6124 41 45.0258V42.9218H46.616V45.0258ZM42.184 44.9378C42.184 45.4551 42.3253 45.8578 42.608 46.1458C42.8907 46.4338 43.2907 46.5778 43.808 46.5778C44.3253 46.5778 44.728 46.4338 45.016 46.1458C45.304 45.8578 45.448 45.4551 45.448 44.9378V44.2898H42.184V44.9378ZM40.936 50.7663C40.936 50.3289 41.0293 49.9343 41.216 49.5823C41.4027 49.2356 41.6693 48.9609 42.016 48.7583C42.3627 48.5609 42.768 48.4623 43.232 48.4623C43.6907 48.4623 44.0933 48.5636 44.44 48.7663C44.792 48.9689 45.0613 49.2463 45.248 49.5983C45.4347 49.9503 45.528 50.3449 45.528 50.7823C45.528 51.2196 45.4347 51.6143 45.248 51.9663C45.0613 52.3183 44.792 52.5956 44.44 52.7983C44.0933 53.0009 43.6907 53.1023 43.232 53.1023C42.7733 53.1023 42.368 52.9983 42.016 52.7903C41.6693 52.5876 41.4027 52.3076 41.216 51.9503C41.0293 51.5983 40.936 51.2036 40.936 50.7663ZM42.12 50.7663C42.12 51.0276 42.216 51.2489 42.408 51.4303C42.6 51.6169 42.8747 51.7103 43.232 51.7103C43.5893 51.7103 43.864 51.6196 44.056 51.4383C44.248 51.2623 44.344 51.0436 44.344 50.7823C44.344 50.5156 44.248 50.2943 44.056 50.1183C43.8693 49.9423 43.5947 49.8543 43.232 49.8543C42.8747 49.8543 42.6 49.9396 42.408 50.1103C42.216 50.2863 42.12 50.5049 42.12 50.7663ZM43.232 53.556C43.696 53.556 44.1013 53.6494 44.448 53.836C44.7947 54.028 45.0613 54.292 45.248 54.628C45.4347 54.9694 45.528 55.3587 45.528 55.796C45.528 56.356 45.3813 56.8227 45.088 57.196C44.7947 57.5747 44.3813 57.8227 43.848 57.94V56.484C44.1893 56.3614 44.36 56.124 44.36 55.772C44.36 55.5214 44.2613 55.3214 44.064 55.172C43.872 55.0227 43.5947 54.948 43.232 54.948C42.8693 54.948 42.5893 55.0227 42.392 55.172C42.2 55.3214 42.104 55.5214 42.104 55.772C42.104 56.124 42.2747 56.3614 42.616 56.484V57.94C42.0933 57.8227 41.6827 57.5747 41.384 57.196C41.0853 56.8174 40.936 56.3507 40.936 55.796C40.936 55.3587 41.0293 54.9694 41.216 54.628C41.4027 54.292 41.6693 54.028 42.016 53.836C42.3627 53.6494 42.768 53.556 43.232 53.556Z" fill="white"/>
</g>
</g>
<defs>
<filter id="filter0_d_278_114" x="15" y="1" width="69" height="69" filterUnits="userSpaceOnUse" color-interpolation-filters="sRGB">
<feFlood flood-opacity="0" result="BackgroundImageFix"/>
<feColorMatrix in="SourceAlpha" type="matrix" values="0 0 0 0 0 0 0 0 0 0 0 0 0 0 0 0 0 0 127 0" result="hardAlpha"/>
<feOffset dx="-1"/>
<feGaussianBlur stdDeviation="1"/>
<feComposite in2="hardAlpha" operator="out"/>
<feColorMatrix type="matrix" values="0 0 0 0 0 0 0 0 0 0 0 0 0 0 0 0 0 0 0.25 0"/>
<feBlend mode="normal" in2="BackgroundImageFix" result="effect1_dropShadow_278_114"/>
<feBlend mode="normal" in="SourceGraphic" in2="effect1_dropShadow_278_114" result="shape"/>
</filter>
</defs>
</svg>
